<?xml version="1.0" standalone="no"?>
<!DOCTYPE svg PUBLIC "-//W3C//DTD SVG 20010904//EN"
 "http://www.w3.org/TR/2001/REC-SVG-20010904/DTD/svg10.dtd">
<svg version="1.0" xmlns="http://www.w3.org/2000/svg"
 width="2560.000000pt" height="2560.000000pt" viewBox="0 0 2560.000000 2560.000000"
 preserveAspectRatio="xMidYMid meet">

<g transform="translate(0.000000,2560.000000) scale(0.100000,-0.100000)"
fill="#000000" stroke="none">
<path d="M7960 20069 c-945 -56 -1761 -250 -2590 -616 -1148 -507 -2167 -1325
-2917 -2343 -731 -992 -1204 -2173 -1357 -3390 -43 -343 -51 -470 -51 -865 0
-658 55 -1149 191 -1730 542 -2305 2195 -4218 4399 -5090 781 -309 1539 -469
2400 -505 367 -16 7062 -8 7260 8 958 79 1828 312 2640 705 467 226 808 436
1282 786 l31 23 159 -105 c198 -131 326 -204 563 -323 1131 -563 2508 -945
3855 -1069 164 -15 696 -40 714 -34 5 2 -126 95 -292 205 -772 515 -1103 796
-1396 1184 -510 676 -755 1623 -820 3165 -28 650 -22 1538 15 2290 57 1148
-133 2248 -562 3265 -672 1589 -1903 2905 -3434 3670 -872 436 -1678 662
-2700 757 -157 15 -532 17 -3715 18 -1947 1 -3601 -1 -3675 -6z m-46 -4515
c92 -6 112 -11 135 -30 15 -12 54 -30 86 -39 102 -29 208 -90 265 -153 29 -31
78 -84 109 -117 36 -39 71 -91 100 -150 24 -49 56 -108 72 -130 27 -37 29 -46
28 -130 -1 -49 4 -112 10 -140 7 -27 16 -104 21 -170 5 -72 15 -137 25 -161
16 -38 28 -274 26 -514 -3 -416 -8 -642 -15 -680 -5 -28 -3 -56 4 -74 11 -29
20 -277 19 -521 0 -71 0 -149 0 -172 0 -140 4 -243 18 -446 13 -192 14 -241 3
-311 -12 -77 -11 -136 6 -248 4 -32 1 -69 -12 -120 -14 -56 -18 -104 -17 -206
2 -119 0 -140 -21 -197 -14 -34 -30 -97 -36 -140 -16 -105 -42 -175 -93 -254
-24 -36 -54 -85 -65 -107 -13 -25 -53 -68 -103 -109 -44 -37 -90 -83 -102
-102 -14 -25 -37 -43 -76 -60 -30 -13 -68 -35 -84 -49 -16 -13 -38 -24 -50
-24 -12 0 -48 -16 -81 -36 -55 -35 -61 -36 -93 -25 -27 10 -45 10 -85 1 -31
-8 -75 -10 -117 -6 -36 4 -102 9 -146 12 -44 2 -103 8 -131 14 -82 14 -230 91
-345 179 -131 99 -204 177 -220 234 -13 47 -60 142 -96 195 -16 24 -23 49 -23
81 0 32 -10 68 -34 118 -34 70 -34 72 -29 173 6 93 4 105 -17 142 -20 36 -22
47 -14 117 4 42 8 139 9 216 2 77 4 217 5 310 1 94 -3 208 -10 255 -7 58 -8
94 -1 111 15 42 17 466 1 513 -8 25 -10 61 -6 100 14 142 18 647 5 752 -9 83
-9 119 0 173 11 61 20 304 25 661 2 138 20 281 43 349 9 24 17 63 19 87 4 54
23 118 58 201 14 34 26 71 26 81 0 10 20 58 45 106 25 49 45 97 45 108 0 11
11 23 27 29 15 5 48 29 73 52 66 62 108 92 175 125 33 17 77 46 98 66 34 32
44 36 92 36 29 0 88 7 131 15 89 16 159 23 189 19 11 -2 69 -6 129 -10z m9832
-69 c61 -18 104 -62 129 -130 9 -27 26 -66 37 -85 13 -22 20 -52 19 -82 0 -34
8 -62 29 -103 17 -32 44 -103 61 -159 17 -55 41 -126 54 -156 12 -30 27 -77
33 -105 16 -79 69 -214 113 -286 31 -51 39 -75 39 -112 0 -60 47 -182 100
-262 33 -50 40 -68 40 -110 0 -48 3 -54 58 -111 89 -94 146 -95 192 -5 11 22
28 46 37 53 10 7 24 21 31 30 14 17 63 150 111 298 15 47 40 102 54 124 15 21
29 54 32 75 17 109 27 150 48 191 13 25 38 72 55 105 17 33 38 92 46 131 8 39
26 95 41 124 15 29 33 83 41 121 8 38 27 89 43 114 16 25 37 75 47 112 14 51
28 77 66 118 26 29 60 57 75 63 16 6 88 13 161 15 144 6 211 -6 245 -45 26
-31 23 -130 -8 -225 -14 -43 -34 -109 -45 -148 -10 -38 -30 -100 -44 -138 -14
-37 -26 -80 -26 -95 0 -41 -77 -298 -111 -372 -25 -54 -29 -72 -24 -111 6 -40
2 -54 -25 -103 -42 -74 -80 -192 -90 -281 -6 -56 -23 -104 -85 -240 -72 -158
-78 -176 -85 -261 -8 -92 -15 -114 -55 -169 -27 -38 -105 -273 -105 -318 0
-19 -17 -68 -40 -113 -21 -43 -50 -117 -64 -164 -13 -47 -34 -107 -45 -133
-12 -27 -21 -56 -21 -66 0 -10 -11 -55 -25 -101 -14 -46 -25 -96 -25 -112 0
-16 -12 -52 -26 -80 -38 -75 -50 -229 -28 -351 15 -83 15 -94 -2 -178 -16 -80
-16 -96 -4 -171 8 -46 13 -104 12 -131 -1 -26 2 -66 8 -88 8 -30 8 -66 0 -134
-11 -80 -10 -102 4 -159 16 -63 16 -70 -1 -129 -19 -67 -20 -106 -10 -332 4
-112 3 -163 -8 -200 -7 -27 -16 -88 -20 -135 -7 -97 -26 -146 -71 -175 -27
-19 -45 -21 -165 -20 -94 1 -151 7 -190 19 -87 26 -93 32 -96 117 -2 41 -7 90
-11 109 -4 19 -4 58 1 85 5 28 6 88 3 135 -8 109 -8 95 0 172 4 41 2 85 -5
113 -9 35 -9 55 1 86 9 32 9 59 -1 129 -10 73 -10 96 1 132 11 34 14 137 13
498 -1 494 -6 550 -56 708 -16 51 -29 104 -29 118 0 46 -70 308 -97 363 -17
36 -29 80 -33 130 -9 93 -34 189 -65 252 -13 26 -29 75 -34 108 -6 34 -19 77
-31 96 -11 18 -30 77 -41 132 -12 54 -27 109 -34 123 -7 14 -33 88 -58 165
-25 77 -52 159 -61 182 -8 23 -20 72 -26 110 -6 43 -25 97 -51 149 -22 45 -47
112 -54 150 -8 38 -26 103 -39 144 -13 41 -26 100 -29 132 -3 33 -20 90 -41
138 -20 45 -42 117 -50 161 -9 53 -23 93 -40 117 -20 30 -26 50 -26 94 0 31
-11 95 -25 142 -46 158 -31 195 81 206 126 13 268 11 320 -5z m-1671 -32 c27
-10 80 -14 161 -14 86 1 124 -3 131 -12 5 -6 22 -46 36 -89 24 -67 27 -91 27
-205 0 -127 -13 -210 -41 -268 -19 -41 -64 -48 -283 -47 -138 0 -188 -3 -215
-14 -30 -13 -46 -13 -97 -3 -57 11 -65 10 -139 -16 -63 -22 -82 -25 -102 -16
-38 18 -60 13 -98 -20 -70 -61 -87 -106 -96 -247 -5 -70 -8 -233 -8 -362 1
-129 -2 -277 -6 -327 -6 -75 -4 -106 11 -163 15 -60 16 -75 5 -106 -9 -24 -15
-114 -18 -267 -2 -128 -5 -245 -6 -262 0 -16 5 -69 12 -116 9 -61 10 -98 3
-123 -23 -81 36 -225 124 -306 59 -53 90 -64 235 -80 52 -6 132 -17 179 -25
47 -8 100 -15 117 -15 27 0 37 -7 59 -39 20 -32 29 -63 40 -153 7 -62 12 -120
9 -128 -3 -8 -12 -55 -20 -105 -9 -49 -27 -114 -42 -144 -30 -62 -64 -81 -145
-81 -157 0 -411 -34 -455 -61 -38 -23 -76 -84 -92 -145 -10 -38 -27 -662 -23
-849 0 -44 2 -118 3 -165 1 -47 -1 -115 -6 -152 -5 -44 -4 -89 4 -128 10 -50
10 -65 -3 -88 -8 -15 -22 -42 -30 -60 -18 -38 -66 -62 -125 -62 -22 0 -53 -8
-69 -17 -28 -16 -35 -16 -129 1 -94 18 -101 18 -132 1 -49 -25 -73 -13 -120
58 l-41 63 0 135 c0 74 -5 152 -10 174 -8 30 -6 62 7 126 15 76 15 105 5 250
-7 90 -15 187 -18 216 -4 36 -1 68 10 101 14 40 15 64 7 133 -6 52 -6 115 0
166 5 49 6 115 1 160 -8 68 1 219 13 231 2 2 -5 27 -16 55 -19 48 -19 54 -5
116 8 36 17 122 20 191 3 69 8 181 12 250 4 101 2 136 -12 182 -15 51 -15 60
-2 95 13 32 14 64 7 198 -4 88 -6 187 -2 220 3 40 0 77 -10 111 -15 51 -10
121 12 162 12 23 16 429 4 467 -6 19 -6 45 0 70 5 22 8 135 7 250 -3 278 -3
320 1 385 2 30 2 150 -1 265 -3 182 -1 215 14 249 9 22 19 73 23 114 5 60 12
83 37 121 44 65 126 119 201 131 218 34 292 40 402 30 95 -7 117 -6 143 7 26
13 44 13 108 5 175 -24 214 -25 277 -3 61 20 77 20 150 -6z m-12421 -2 c9 -7
27 -38 41 -69 14 -31 40 -78 57 -106 20 -34 35 -76 44 -130 8 -44 25 -98 38
-121 13 -22 27 -58 31 -80 12 -72 36 -149 69 -225 39 -89 62 -152 87 -240 10
-36 31 -97 47 -135 16 -39 33 -95 36 -125 4 -30 26 -104 50 -165 24 -60 51
-131 60 -157 10 -26 22 -50 27 -53 5 -4 9 -18 9 -32 0 -15 14 -51 32 -82 21
-38 32 -71 33 -101 1 -25 16 -98 33 -164 24 -89 41 -131 68 -169 45 -62 78
-134 99 -218 9 -35 26 -81 37 -103 11 -22 28 -63 38 -91 9 -27 66 -164 125
-303 119 -280 161 -346 203 -323 12 6 25 24 29 39 8 28 7 740 -2 1272 -3 168
-7 483 -9 700 -2 217 -7 481 -11 585 -4 105 -4 266 0 359 7 168 8 170 35 197
l28 28 198 0 c234 -1 313 -15 348 -62 21 -28 21 -36 21 -600 1 -390 -4 -629
-13 -752 -8 -104 -10 -207 -6 -245 16 -138 17 -977 2 -1305 -13 -279 -13 -280
3 -341 11 -44 10 -67 -4 -152 -18 -106 -21 -235 -8 -337 5 -41 3 -79 -6 -120
-16 -68 -11 -218 12 -338 10 -51 10 -77 3 -96 -15 -36 -17 -190 -5 -356 9
-120 8 -149 -6 -206 -12 -46 -17 -109 -17 -218 0 -164 -8 -196 -52 -219 -45
-25 -138 -30 -233 -15 -77 12 -97 20 -141 53 -46 34 -58 53 -127 194 -42 86
-87 171 -100 189 -16 20 -29 58 -36 102 -13 76 -41 145 -97 237 -20 32 -51
102 -69 155 -19 55 -45 107 -60 123 -18 19 -31 49 -40 94 -15 70 -82 223 -128
290 -15 21 -27 53 -27 69 0 31 -105 270 -170 387 -11 19 -20 53 -20 75 0 22
-12 65 -26 95 -14 30 -41 98 -59 150 -54 157 -184 481 -217 540 -35 63 -76
110 -95 110 -25 0 -30 -43 -33 -280 -1 -129 -3 -248 -3 -265 -1 -16 5 -83 12
-147 13 -118 11 -226 -7 -306 -6 -26 -6 -75 -1 -125 13 -127 12 -298 -2 -332
-19 -46 -14 -351 7 -427 13 -44 15 -74 9 -121 -5 -34 -9 -109 -11 -167 -1 -58
-5 -122 -8 -142 -4 -21 -1 -80 5 -131 9 -77 8 -103 -5 -152 -8 -33 -18 -98
-22 -145 -10 -127 -45 -181 -134 -208 -28 -8 -277 -10 -393 -3 -12 1 -28 23
-49 69 -16 37 -39 75 -50 85 -10 10 -17 26 -14 35 19 61 25 185 22 457 -1 171
2 409 7 530 7 168 6 243 -3 317 -12 86 -11 100 4 139 13 32 16 55 10 93 -4 28
-9 87 -10 131 -2 99 -20 328 -29 373 -4 18 -2 53 5 80 21 74 23 504 4 564 -12
38 -13 51 -3 70 20 36 40 286 27 327 -6 21 -8 55 -3 90 4 31 8 196 10 366 1
240 -2 326 -13 380 -12 56 -12 82 -3 130 13 70 28 288 26 395 -1 41 2 154 6
250 7 147 11 363 8 459 -1 38 32 99 65 122 29 19 42 20 213 16 127 -2 186 -7
197 -16z m6656 9 c97 4 147 3 390 -5 244 -8 261 -8 300 -6 19 1 127 -1 240 -3
442 -11 493 -18 522 -77 10 -19 19 -57 22 -84 2 -28 9 -96 17 -151 12 -93 11
-106 -5 -148 -22 -56 -86 -122 -136 -138 -19 -6 -123 -14 -230 -18 -107 -4
-196 -8 -197 -9 -3 -3 -84 -67 -113 -89 -17 -13 -37 -37 -45 -52 -18 -35 -37
-304 -24 -339 6 -14 5 -37 0 -58 -8 -26 -6 -46 4 -77 19 -52 19 -80 0 -116
-11 -21 -13 -45 -9 -89 4 -38 0 -108 -11 -188 -17 -116 -17 -144 -5 -293 13
-173 16 -402 8 -605 -1 -22 -1 -110 1 -195 3 -166 3 -162 -4 -440 -5 -217 -4
-173 -4 -390 0 -96 -1 -191 -1 -210 -3 -81 -3 -129 -1 -190 1 -36 1 -126 0
-200 -6 -423 -5 -451 19 -516 l24 -62 -22 -47 c-20 -43 -22 -63 -20 -194 2
-154 -12 -415 -24 -442 -15 -33 -147 -76 -198 -64 -18 5 -99 9 -181 10 -101 1
-155 6 -172 15 -53 28 -107 214 -90 307 7 38 11 306 6 398 -1 28 -2 291 -2
585 0 294 1 542 0 550 0 8 2 89 6 180 3 91 2 183 -3 205 -6 28 -4 53 6 83 12
37 13 61 2 160 -16 141 -16 157 0 347 15 184 7 740 -12 792 -10 28 -9 42 7 88
16 49 17 68 8 187 -6 74 -8 275 -6 453 6 363 3 384 -58 450 -49 53 -76 66
-204 99 -95 25 -102 25 -152 11 -50 -15 -57 -14 -126 6 -85 26 -113 43 -132
79 -7 14 -19 92 -26 173 l-12 146 27 54 c25 52 30 56 94 80 56 21 87 25 173
26 57 1 122 5 144 10 22 5 58 7 80 3 22 -3 78 -4 125 -2z m3081 -52 c16 -18
39 -52 50 -75 19 -40 20 -52 12 -365 -10 -425 -5 -681 14 -730 13 -33 13 -44
-2 -107 -14 -54 -16 -92 -11 -163 4 -51 9 -433 12 -848 6 -989 6 -1021 -1
-1184 -6 -118 -4 -149 11 -198 16 -55 16 -73 4 -241 -21 -294 -22 -339 -12
-432 7 -59 6 -119 -1 -186 -9 -83 -8 -112 6 -187 28 -145 30 -201 13 -267 -11
-40 -16 -103 -16 -193 l0 -134 -35 -35 -34 -34 -228 3 c-275 4 -285 6 -294 84
-4 28 -14 73 -23 101 -13 39 -14 59 -6 102 15 79 12 271 -4 335 -11 41 -12 64
-5 92 6 21 8 91 4 173 -6 125 -6 303 -2 541 1 52 0 151 -2 220 -2 69 0 175 4
235 6 90 5 122 -9 167 -19 66 -20 111 -4 141 14 26 12 208 -4 312 -13 89 -13
68 7 231 11 98 14 152 7 175 -5 19 -7 152 -4 309 4 229 2 285 -11 328 -11 39
-12 61 -5 90 15 57 20 608 6 744 -10 100 -9 123 4 165 12 38 13 65 6 133 -14
127 -14 198 -1 268 9 47 9 86 2 149 -16 129 16 252 73 285 16 9 86 15 213 19
105 3 200 6 213 7 15 1 34 -10 53 -30z"/>
<path d="M7641 14865 c-77 -39 -106 -75 -167 -205 -66 -139 -84 -213 -91 -370
-4 -108 -6 -402 -2 -550 0 -14 -2 -113 -6 -220 -4 -108 -2 -312 5 -455 6 -143
11 -267 11 -275 0 -8 -4 -73 -9 -145 -6 -76 -6 -140 -1 -153 11 -29 19 -810 8
-865 -11 -62 8 -524 27 -634 20 -120 60 -202 142 -292 43 -48 71 -68 117 -87
91 -36 178 -29 204 19 12 22 128 84 165 89 12 2 33 26 51 57 29 49 32 62 31
130 -1 42 4 90 11 108 7 18 13 56 13 85 1 29 5 72 9 95 4 23 5 63 0 90 -4 26
-3 104 3 172 10 111 9 129 -7 177 -17 49 -17 59 -4 111 8 32 13 99 13 148 -2
132 -2 285 -1 368 1 39 1 169 0 287 -1 118 -2 251 -2 295 0 44 0 112 -1 150 0
39 0 81 1 95 0 14 -2 126 -6 250 -5 124 -9 293 -9 375 -1 97 -6 163 -14 188
-12 32 -11 44 2 84 24 71 22 274 -4 330 -15 33 -17 50 -9 75 14 51 11 107 -12
194 -42 161 -108 259 -182 268 -21 3 -49 14 -64 26 -42 33 -141 27 -222 -15z"/>
</g>
</svg>
